<svg width="61" height="78" viewBox="0 0 61 78" fill="none" xmlns="http://www.w3.org/2000/svg">
<path d="M60.176 39.193C33.106 51.926 31.186 70.71 30.328 74.067V74.115C30.314 74.099 30.314 74.083 30.314 74.067C29.441 70.71 27.536 51.926 0.466003 39.193C26.139 29.413 30.008 6.127 30.299 3.964C30.314 3.932 30.314 3.90002 30.314 3.86702C30.328 3.89902 30.328 3.932 30.328 3.964C30.343 3.964 30.328 3.98003 30.328 3.98003C30.663 6.22303 34.547 29.43 60.176 39.193Z" fill="#08090A"/>
<path d="M53.745 8.12602C55.7653 8.12602 57.403 6.48826 57.403 4.468C57.403 2.44774 55.7653 0.810013 53.745 0.810013C51.7248 0.810013 50.087 2.44774 50.087 4.468C50.087 6.48826 51.7248 8.12602 53.745 8.12602Z" fill="#08090A"/>
<path d="M44.296 12.005C44.296 10.901 45.191 10.006 46.295 10.006C47.399 10.006 48.294 10.901 48.294 12.005C48.294 13.109 47.399 14.004 46.295 14.004C45.191 14.004 44.296 13.109 44.296 12.005Z" fill="#08090A"/>
<path d="M58.675 20.505C59.51 20.505 60.187 19.8281 60.187 18.993C60.187 18.158 59.51 17.481 58.675 17.481C57.8399 17.481 57.163 18.158 57.163 18.993C57.163 19.8281 57.8399 20.505 58.675 20.505Z" fill="#08090A"/>
<path d="M11.931 74.365C11.793 76.381 10.047 77.903 8.03201 77.765C6.01601 77.627 4.49398 75.881 4.63198 73.866C4.76998 71.85 6.516 70.328 8.531 70.466C10.546 70.603 12.068 72.349 11.931 74.365Z" fill="#08090A"/>
<path d="M18.222 67.241C18.147 68.343 17.193 69.174 16.091 69.099C14.989 69.024 14.158 68.07 14.233 66.968C14.308 65.866 15.262 65.034 16.364 65.11C17.466 65.186 18.298 66.14 18.222 67.241Z" fill="#08090A"/>
<path d="M5.86204 59.391C5.80504 60.224 5.08304 60.854 4.25004 60.797C3.41704 60.74 2.78704 60.018 2.84404 59.185C2.90104 58.352 3.62304 57.722 4.45604 57.779C5.29004 57.836 5.91904 58.558 5.86204 59.391Z" fill="#08090A"/>
</svg>
