<svg width="193" height="41" viewBox="0 0 193 41" fill="none" xmlns="http://www.w3.org/2000/svg">
<path d="M22.01 17.113C17.063 16.155 12.309 14.692 7.681 12.701C6.345 12.126 3.88 13.557 3.522 14.896C2.378 19.167 1.234 23.438 0.0899981 27.709C-0.603002 30.297 4.473 28.698 4.964 26.867C5.332 25.493 5.7 24.119 6.068 22.745C9.05599 29.541 14.3 35.599 21.172 38.178C28.736 41.017 37.821 40.127 45.658 39.226C56.03 38.034 65.94 34.343 75.075 29.399C82.176 25.556 92.393 16.783 101.86 15.078C101.169 22.866 106.238 28.465 114.051 28.035C117.101 27.867 119.949 26.952 121.344 24.092C123.389 19.901 117.179 15.569 114.148 14.414C111.977 13.587 109.693 13.229 107.369 13.195C108.956 -1.72799 131.107 0.879006 141.373 5.23701C152.059 9.77301 158.894 18.965 168.534 24.904C171.587 26.785 175.37 27.761 178.946 27.688C180.851 27.649 182.74 27.558 184.608 27.128C186.268 26.746 188.21 25.509 189.854 25.327C192.963 24.981 192.853 23.818 189.736 24.164C188.19 24.336 186.859 24.557 185.384 25.043C180.264 26.731 176.625 25.85 172.264 23.163C166.314 19.497 161.656 13.851 155.977 9.76401C146.523 2.95901 134.457 -0.887999 122.772 0.454001C113.95 1.468 103.816 3.85 102.057 13.652C95.762 14.781 89.513 17.771 84.579 20.597C70.104 28.886 57.443 37.409 40.169 38.568C33.489 39.016 26.739 38.371 20.99 34.705C15.955 31.495 11.936 24.351 10.089 18.44C12.86 19.349 15.676 20.102 18.565 20.661C20.4 21.016 24.516 17.598 22.01 17.113ZM116.042 22.444C116.182 23.186 116.143 23.919 115.924 24.641C115.269 28.298 112.323 26.166 111.087 25.267C108.013 23.03 107.272 18.508 107.274 14.978C109.172 15.295 111.005 16.018 112.734 17.278C114.469 18.542 115.487 20.435 116.042 22.444Z" fill="#08090A"/>
</svg>
