<svg width="79" height="78" viewBox="0 0 79 78" fill="none" xmlns="http://www.w3.org/2000/svg">
<path d="M47.8 49.638C26.283 59.759 24.757 74.69 24.075 77.358V77.396C24.063 77.383 24.063 77.37 24.063 77.358C23.369 74.69 21.855 59.759 0.338013 49.638C20.745 41.865 23.821 23.354 24.052 21.635C24.064 21.609 24.064 21.584 24.064 21.558C24.076 21.584 24.076 21.609 24.076 21.635C24.088 21.635 24.076 21.648 24.076 21.648C24.34 23.431 27.427 41.877 47.8 49.638Z" fill="#08090A"/>
<path d="M78.727 35.713C65.344 42.008 64.395 51.295 63.971 52.954V52.978C63.964 52.97 63.964 52.962 63.964 52.954C63.532 51.294 62.59 42.008 49.208 35.713C61.9 30.878 63.813 19.365 63.957 18.296C63.964 18.28 63.964 18.264 63.964 18.248C63.971 18.264 63.971 18.28 63.971 18.296C63.978 18.296 63.971 18.304 63.971 18.304C64.136 19.414 66.056 30.887 78.727 35.713Z" fill="#08090A"/>
<path d="M52.627 11.056C44.487 14.885 43.909 20.534 43.651 21.543V21.557C43.647 21.552 43.647 21.547 43.647 21.543C43.385 20.534 42.812 14.885 34.671 11.056C42.392 8.11502 43.555 1.11202 43.643 0.462021C43.647 0.452021 43.647 0.443014 43.647 0.433014C43.651 0.443014 43.651 0.453021 43.651 0.462021C43.655 0.462021 43.651 0.46701 43.651 0.46701C43.752 1.14201 44.919 8.12001 52.627 11.056Z" fill="#08090A"/>
</svg>
